<svg xmlns="http://www.w3.org/2000/svg" viewBox="0 0 160 120" fill="none">
  <defs>
    <linearGradient id="bottle" x1="45" y1="25" x2="86" y2="94" gradientUnits="userSpaceOnUse"><stop stop-color="#FFF7CF"/><stop offset="1" stop-color="#EFCB5B"/></linearGradient>
    <linearGradient id="block" x1="86" y1="58" x2="130" y2="96" gradientUnits="userSpaceOnUse"><stop stop-color="#DDEBFF"/><stop offset="1" stop-color="#83A9EC"/></linearGradient>
    <filter id="shadow" x="18" y="14" width="128" height="100" filterUnits="userSpaceOnUse"><feDropShadow dx="0" dy="7" stdDeviation="5" flood-color="#9A8550" flood-opacity=".18"/></filter>
  </defs>
  <ellipse cx="80" cy="96" rx="56" ry="9" fill="#F2E8C7"/>
  <g filter="url(#shadow)">
    <rect x="56" y="20" width="20" height="12" rx="5" fill="#FFF6D8"/>
    <path d="M60 31h12l5 10v42c0 7-5 11-11 11H54c-6 0-11-4-11-11V41l5-10h12Z" fill="url(#bottle)"/>
    <path d="M49 52h22M49 66h22" stroke="#FFF9E5" stroke-width="3" opacity=".9"/>
    <path d="m91 63 18-8 19 10v22l-18 9-20-10 1-23Z" fill="url(#block)"/>
    <path d="m91 63 19 10 18-8M110 73v23" stroke="#EAF3FF" stroke-width="3"/>
    <circle cx="108" cy="83" r="5" fill="#FFF4B9"/>
  </g>
</svg>
