<svg xmlns="http://www.w3.org/2000/svg" viewBox="0 0 200 150" fill="none">
  <defs>
    <linearGradient id="babyBottleGradient" x1="46" y1="43" x2="93" y2="121" gradientUnits="userSpaceOnUse"><stop stop-color="#DDF5FF"/><stop offset="1" stop-color="#87C7E7"/></linearGradient>
    <linearGradient id="babyBearGradient" x1="130" y1="70" x2="167" y2="122" gradientUnits="userSpaceOnUse"><stop stop-color="#F5C38A"/><stop offset="1" stop-color="#C88657"/></linearGradient>
    <filter id="babySoftShadow" x="20" y="22" width="160" height="120" filterUnits="userSpaceOnUse"><feDropShadow dx="0" dy="8" stdDeviation="6" flood-color="#694D4A" flood-opacity=".17"/></filter>
  </defs>
  <g filter="url(#babySoftShadow)">
    <ellipse cx="101" cy="126" rx="68" ry="8" fill="#D9D6DD" opacity=".65"/>
    <rect x="48" y="55" width="40" height="66" rx="14" fill="url(#babyBottleGradient)"/>
    <path d="M58 55V45c0-8 7-13 10-13s10 5 10 13v10" stroke="#7BA7BF" stroke-width="7" stroke-linecap="round"/>
    <rect x="53" y="50" width="30" height="10" rx="5" fill="#F2A6B7"/>
    <path d="M58 72h20M58 84h20M58 96h20" stroke="#F7FEFF" stroke-width="3" stroke-linecap="round" opacity=".9"/>
    <rect x="94" y="89" width="28" height="28" rx="5" fill="#EF766A"/>
    <rect x="108" y="76" width="28" height="28" rx="5" fill="#F6C956"/>
    <path d="M102 98h12m0-14h15" stroke="#FFF6D6" stroke-width="4" stroke-linecap="round"/>
    <circle cx="151" cy="78" r="19" fill="url(#babyBearGradient)"/>
    <circle cx="137" cy="63" r="8" fill="#D79A67"/>
    <circle cx="165" cy="63" r="8" fill="#D79A67"/>
    <ellipse cx="151" cy="106" rx="19" ry="17" fill="#D79360"/>
    <circle cx="144" cy="76" r="2.5" fill="#523D3B"/><circle cx="158" cy="76" r="2.5" fill="#523D3B"/>
    <ellipse cx="151" cy="84" rx="5" ry="4" fill="#725047"/>
    <path d="M142 103c5 5 12 5 18 0" stroke="#F7DFC1" stroke-width="3" stroke-linecap="round"/>
  </g>
</svg>
