<svg xmlns="http://www.w3.org/2000/svg" viewBox="0 0 200 150" fill="none">
  <defs>
    <linearGradient id="fashionShirtGradient" x1="42" y1="50" x2="99" y2="120" gradientUnits="userSpaceOnUse"><stop stop-color="#B8B2FA"/><stop offset="1" stop-color="#7665CE"/></linearGradient>
    <linearGradient id="fashionBagGradient" x1="132" y1="73" x2="166" y2="124" gradientUnits="userSpaceOnUse"><stop stop-color="#FFD49B"/><stop offset="1" stop-color="#D78555"/></linearGradient>
    <filter id="fashionSoftShadow" x="22" y="27" width="157" height="114" filterUnits="userSpaceOnUse"><feDropShadow dx="0" dy="8" stdDeviation="6" flood-color="#302855" flood-opacity=".18"/></filter>
  </defs>
  <g filter="url(#fashionSoftShadow)">
    <ellipse cx="101" cy="126" rx="68" ry="8" fill="#D9D1E3" opacity=".72"/>
    <path d="m65 45 12 9 12-9 24 15-12 20-10-6v45H52V74l-10 6-12-20 23-15 12 9Z" fill="url(#fashionShirtGradient)"/>
    <path d="m66 48 11 13 12-13-7-7H73l-7 7Z" fill="#F5F3FF"/>
    <path d="M70 70v38" stroke="#B9B1ED" stroke-width="3" stroke-linecap="round"/>
    <path d="M94 103c13 1 24 8 34 16H85c-3-8 2-16 9-16Z" fill="#F7F7F8"/>
    <path d="M95 102c12 0 21 7 31 14H91c-4-6-1-14 4-14Z" fill="#80B9CF"/>
    <path d="M95 111h21" stroke="#FFF" stroke-width="3" stroke-linecap="round"/>
    <path d="M137 82h30c5 0 9 4 9 9v27h-48V91c0-5 4-9 9-9Z" fill="url(#fashionBagGradient)"/>
    <path d="M139 83v-8c0-9 7-16 15-16s15 7 15 16v8" stroke="#9A593F" stroke-width="6" stroke-linecap="round"/>
    <circle cx="152" cy="99" r="3" fill="#FFF3D7"/>
  </g>
</svg>
