<svg xmlns="http://www.w3.org/2000/svg" viewBox="0 0 200 150" fill="none">
  <defs>
    <linearGradient id="healthJarGradient" x1="42" y1="56" x2="95" y2="122" gradientUnits="userSpaceOnUse"><stop stop-color="#D9F2AF"/><stop offset="1" stop-color="#72B56A"/></linearGradient>
    <linearGradient id="healthDeviceGradient" x1="130" y1="83" x2="171" y2="120" gradientUnits="userSpaceOnUse"><stop stop-color="#DAEFF8"/><stop offset="1" stop-color="#71A9C6"/></linearGradient>
    <filter id="healthSoftShadow" x="19" y="25" width="163" height="118" filterUnits="userSpaceOnUse"><feDropShadow dx="0" dy="8" stdDeviation="6" flood-color="#27514A" flood-opacity=".18"/></filter>
  </defs>
  <g filter="url(#healthSoftShadow)">
    <ellipse cx="101" cy="126" rx="69" ry="8" fill="#D4E1D6" opacity=".7"/>
    <rect x="46" y="56" width="48" height="65" rx="12" fill="url(#healthJarGradient)"/>
    <rect x="42" y="45" width="56" height="16" rx="7" fill="#519558"/>
    <rect x="53" y="72" width="34" height="25" rx="7" fill="#F7FFF1" opacity=".9"/>
    <path d="m70 78 4 7 8 1-6 6 2 8-8-4-7 4 1-8-6-6 8-1 4-7Z" fill="#F0C95C"/>
    <path d="M112 76c0-12 20-16 25-2 6-14 25-10 25 2 0 16-25 29-25 29s-25-13-25-29Z" fill="#EE7582"/>
    <path d="M124 88h9l4-7 5 14 4-7h8" stroke="#FFF6F7" stroke-width="3" stroke-linejoin="round" stroke-linecap="round"/>
    <rect x="132" y="101" width="40" height="25" rx="8" fill="url(#healthDeviceGradient)"/>
    <path d="M142 109c3-8 13-8 17 0" stroke="#3B718D" stroke-width="3" stroke-linecap="round"/>
    <path d="M152 113v6" stroke="#EE7A72" stroke-width="3" stroke-linecap="round"/>
  </g>
</svg>
