<svg xmlns="http://www.w3.org/2000/svg" viewBox="0 0 200 150" fill="none">
  <defs>
    <linearGradient id="householdBottleGradient" x1="53" y1="43" x2="100" y2="122" gradientUnits="userSpaceOnUse"><stop stop-color="#8FE0E8"/><stop offset="1" stop-color="#3D9FC5"/></linearGradient>
    <linearGradient id="householdSpongeGradient" x1="101" y1="82" x2="146" y2="120" gradientUnits="userSpaceOnUse"><stop stop-color="#FFE987"/><stop offset="1" stop-color="#EFA942"/></linearGradient>
    <filter id="householdSoftShadow" x="20" y="20" width="160" height="122" filterUnits="userSpaceOnUse"><feDropShadow dx="0" dy="8" stdDeviation="6" flood-color="#1C4D68" flood-opacity=".18"/></filter>
  </defs>
  <g filter="url(#householdSoftShadow)">
    <ellipse cx="101" cy="126" rx="69" ry="8" fill="#C7DCE2" opacity=".7"/>
    <path d="M56 49h34l8 20v43c0 7-5 11-11 11H58c-7 0-11-5-11-11V68l9-19Z" fill="url(#householdBottleGradient)"/>
    <path d="M61 48V36h27v12" fill="#4E93AE"/>
    <path d="M55 36h39v10H55z" fill="#3C728E"/>
    <path d="M58 75c10-6 21-6 30 0v28c-9-3-20-3-30 1V75Z" fill="#E9FCFD" opacity=".92"/>
    <path d="M68 84c5-8 13-6 14 0-5 6-11 6-14 0Z" fill="#4AB6BE"/>
    <g transform="rotate(-11 123 101)">
      <rect x="100" y="81" width="48" height="34" rx="10" fill="url(#householdSpongeGradient)"/>
      <path d="M102 93h44v13h-44z" fill="#84B96F"/>
      <path d="M111 86h24" stroke="#FFF7BD" stroke-width="4" stroke-linecap="round" opacity=".75"/>
    </g>
    <path d="M147 48c11 12 18 30 20 50" stroke="#D78357" stroke-width="10" stroke-linecap="round"/>
    <path d="M145 50c4-6 12-7 17-2l-3 11-15-1 1-8Z" fill="#F2BB78"/>
    <path d="m157 97 17-2 4 18-23 3 2-19Z" fill="#79A36F"/>
    <path d="m160 113 4 9m4-10 3 8m4-9 2 7" stroke="#F7E7BA" stroke-width="3" stroke-linecap="round"/>
  </g>
</svg>
