<svg xmlns="http://www.w3.org/2000/svg" viewBox="0 0 200 150" fill="none">
  <defs>
    <linearGradient id="kitchenPanGradient" x1="35" y1="74" x2="101" y2="121" gradientUnits="userSpaceOnUse"><stop stop-color="#8A9EA9"/><stop offset="1" stop-color="#455967"/></linearGradient>
    <linearGradient id="kitchenPotGradient" x1="119" y1="77" x2="166" y2="122" gradientUnits="userSpaceOnUse"><stop stop-color="#CFEAF0"/><stop offset="1" stop-color="#7093A3"/></linearGradient>
    <filter id="kitchenSoftShadow" x="18" y="28" width="165" height="112" filterUnits="userSpaceOnUse"><feDropShadow dx="0" dy="8" stdDeviation="6" flood-color="#243844" flood-opacity=".18"/></filter>
  </defs>
  <g filter="url(#kitchenSoftShadow)">
    <ellipse cx="101" cy="126" rx="70" ry="8" fill="#D4D8DB" opacity=".7"/>
    <path d="M43 79 28 55" stroke="#4D606A" stroke-width="11" stroke-linecap="round"/>
    <ellipse cx="72" cy="93" rx="35" ry="23" fill="url(#kitchenPanGradient)"/>
    <ellipse cx="72" cy="89" rx="28" ry="16" fill="#293D48"/>
    <ellipse cx="72" cy="88" rx="20" ry="10" fill="#546A76"/>
    <path d="M52 88c9-8 27-8 38 0" stroke="#8397A0" stroke-width="3" stroke-linecap="round" opacity=".8"/>
    <path d="M111 68h51l-4 48H116l-5-48Z" fill="url(#kitchenPotGradient)"/>
    <ellipse cx="136" cy="67" rx="27" ry="8" fill="#4E6E7D"/>
    <path d="M116 82h42" stroke="#E9FAFC" stroke-width="4" stroke-linecap="round" opacity=".7"/>
    <path d="M104 79h-11c-7 0-9 13 0 13h13m56-13h11c7 0 9 13 0 13h-13" stroke="#688A99" stroke-width="5" stroke-linecap="round"/>
    <path d="m169 54-34 47" stroke="#D8905C" stroke-width="7" stroke-linecap="round"/>
    <path d="m174 46-11 14 10 8 11-15c4-6-5-12-10-7Z" fill="#F4B875"/>
    <path d="m132 103-8 12 8 6 9-12-9-6Z" fill="#5B8D76"/>
  </g>
</svg>
