<svg xmlns="http://www.w3.org/2000/svg" viewBox="0 0 200 150" fill="none">
  <defs>
    <linearGradient id="kpopLightGradient" x1="40" y1="38" x2="83" y2="123" gradientUnits="userSpaceOnUse"><stop stop-color="#FBE9FF"/><stop offset="1" stop-color="#A879D2"/></linearGradient>
    <linearGradient id="kpopAlbumGradient" x1="86" y1="65" x2="139" y2="122" gradientUnits="userSpaceOnUse"><stop stop-color="#5FE0D4"/><stop offset="1" stop-color="#2C9C9C"/></linearGradient>
    <filter id="kpopSoftShadow" x="21" y="22" width="159" height="121" filterUnits="userSpaceOnUse"><feDropShadow dx="0" dy="8" stdDeviation="6" flood-color="#4E3066" flood-opacity=".18"/></filter>
  </defs>
  <g filter="url(#kpopSoftShadow)">
    <ellipse cx="101" cy="126" rx="69" ry="8" fill="#E0D4E5" opacity=".72"/>
    <path d="M63 71v47" stroke="#80559B" stroke-width="10" stroke-linecap="round"/>
    <path d="M63 62c0-16 24-16 24 0 0 15-12 22-12 22s-12-7-12-22Z" fill="url(#kpopLightGradient)"/>
    <path d="M70 61c0-7 10-7 10 0 0 6-5 9-5 9s-5-3-5-9Z" fill="#FFF8FF"/>
    <path d="M57 113h12m-16 7h20" stroke="#B7A5C8" stroke-width="4" stroke-linecap="round"/>
    <rect x="91" y="70" width="48" height="49" rx="7" fill="url(#kpopAlbumGradient)"/>
    <rect x="98" y="77" width="34" height="35" rx="5" fill="#DDFEFA" opacity=".9"/>
    <path d="m115 82 5 10 10 2-7 7 2 10-10-5-9 5 2-10-7-7 10-2 4-10Z" fill="#F3C85D"/>
    <circle cx="158" cy="95" r="21" fill="#F2AA87"/>
    <path d="M147 89c4-9 18-9 22 0l-1 13h-20l-1-13Z" fill="#7357A1"/>
    <circle cx="152" cy="97" r="2.5" fill="#FFF8F1"/><circle cx="164" cy="97" r="2.5" fill="#FFF8F1"/>
    <path d="M155 105c2 2 4 2 6 0" stroke="#FFF8F1" stroke-width="2.5" stroke-linecap="round"/>
    <path d="M158 116v10" stroke="#C17F66" stroke-width="4" stroke-linecap="round"/>
    <circle cx="158" cy="126" r="4" fill="#E8D5CF"/>
  </g>
</svg>
