<svg xmlns="http://www.w3.org/2000/svg" viewBox="0 0 200 150" fill="none">
  <defs>
    <linearGradient id="otherCubeBlueGradient" x1="46" y1="62" x2="101" y2="119" gradientUnits="userSpaceOnUse"><stop stop-color="#A7DCF5"/><stop offset="1" stop-color="#5B98C5"/></linearGradient>
    <linearGradient id="otherCubePeachGradient" x1="109" y1="66" x2="163" y2="122" gradientUnits="userSpaceOnUse"><stop stop-color="#FFD2A4"/><stop offset="1" stop-color="#D68463"/></linearGradient>
    <filter id="otherSoftShadow" x="23" y="26" width="154" height="115" filterUnits="userSpaceOnUse"><feDropShadow dx="0" dy="8" stdDeviation="6" flood-color="#344E68" flood-opacity=".18"/></filter>
  </defs>
  <g filter="url(#otherSoftShadow)">
    <ellipse cx="101" cy="126" rx="69" ry="8" fill="#D5DCE1" opacity=".75"/>
    <path d="m44 73 24-14 25 14-24 15-25-15Z" fill="#BFE5F6"/>
    <path d="m44 73 25 15v31l-25-14V73Z" fill="#5D9BC4"/>
    <path d="m69 88 24-15v32l-24 14V88Z" fill="url(#otherCubeBlueGradient)"/>
    <path d="m108 78 23-14 27 14-24 16-26-16Z" fill="#FFDAB0"/>
    <path d="m108 78 26 16v29l-26-14V78Z" fill="#CE805E"/>
    <path d="m134 94 24-16v31l-24 14V94Z" fill="url(#otherCubePeachGradient)"/>
    <path d="m84 46 17-10 18 10-17 11-18-11Z" fill="#D9C5F4"/>
    <path d="m84 46 18 11v22L84 70V46Z" fill="#866FB6"/>
    <path d="m102 57 17-11v24l-17 9V57Z" fill="#AF97D2"/>
    <path d="M52 94h9m-9 8h9m66-8h10m-10 8h10" stroke="#FFF4E5" stroke-width="3" stroke-linecap="round" opacity=".8"/>
  </g>
</svg>
