<svg xmlns="http://www.w3.org/2000/svg" viewBox="0 0 200 150" fill="none">
  <defs>
    <linearGradient id="packagingBoxGradient" x1="47" y1="67" x2="111" y2="123" gradientUnits="userSpaceOnUse"><stop stop-color="#F5C278"/><stop offset="1" stop-color="#C98443"/></linearGradient>
    <linearGradient id="packagingBagGradient" x1="136" y1="74" x2="174" y2="122" gradientUnits="userSpaceOnUse"><stop stop-color="#D5E9F8"/><stop offset="1" stop-color="#7CA9CA"/></linearGradient>
    <filter id="packagingSoftShadow" x="21" y="27" width="160" height="114" filterUnits="userSpaceOnUse"><feDropShadow dx="0" dy="8" stdDeviation="6" flood-color="#654326" flood-opacity=".18"/></filter>
  </defs>
  <g filter="url(#packagingSoftShadow)">
    <ellipse cx="101" cy="126" rx="70" ry="8" fill="#E3D4C5" opacity=".72"/>
    <path d="m48 73 31-18 33 18-31 20-33-20Z" fill="#F4CC8A"/>
    <path d="m48 73 33 20v31l-33-18V73Z" fill="#D18A48"/>
    <path d="m81 93 31-20v33l-31 18V93Z" fill="url(#packagingBoxGradient)"/>
    <path d="M73 58 103 75 94 81 64 64l9-6Z" fill="#E9B96E"/>
    <path d="M77 91v27" stroke="#FFE4B0" stroke-width="5" stroke-linecap="round"/>
    <circle cx="130" cy="76" r="21" fill="#F5D99B"/>
    <circle cx="130" cy="76" r="11" fill="#FDF5DD"/>
    <path d="M118 76h24" stroke="#C68A3A" stroke-width="5" stroke-linecap="round"/>
    <path d="M150 79h25l5 43h-39l9-43Z" fill="url(#packagingBagGradient)"/>
    <path d="M154 79c0-15 17-15 17 0" stroke="#6D9BBE" stroke-width="5" stroke-linecap="round"/>
    <path d="M156 96h17" stroke="#ECF8FF" stroke-width="3" stroke-linecap="round"/>
  </g>
</svg>
