<svg xmlns="http://www.w3.org/2000/svg" viewBox="0 0 200 150" fill="none">
  <defs>
    <linearGradient id="petBowlGradient" x1="42" y1="88" x2="102" y2="122" gradientUnits="userSpaceOnUse"><stop stop-color="#B7D9F5"/><stop offset="1" stop-color="#4F86BD"/></linearGradient>
    <radialGradient id="petBallGradient" cx="0" cy="0" r="1" gradientTransform="translate(137 82) rotate(48) scale(33)"><stop stop-color="#FFB6A4"/><stop offset="1" stop-color="#E7666E"/></radialGradient>
    <filter id="petSoftShadow" x="21" y="30" width="158" height="112" filterUnits="userSpaceOnUse"><feDropShadow dx="0" dy="8" stdDeviation="6" flood-color="#253A5B" flood-opacity=".18"/></filter>
  </defs>
  <g filter="url(#petSoftShadow)">
    <ellipse cx="101" cy="125" rx="68" ry="8" fill="#D7D8E0" opacity=".72"/>
    <ellipse cx="73" cy="92" rx="34" ry="12" fill="#E8F4FD"/>
    <path d="M41 92h64l-11 26c-2 5-8 7-13 7H65c-6 0-11-2-13-7L41 92Z" fill="url(#petBowlGradient)"/>
    <ellipse cx="73" cy="92" rx="31" ry="10" fill="#5B7893"/>
    <ellipse cx="73" cy="91" rx="24" ry="6" fill="#C8915B"/>
    <path d="M62 108h22" stroke="#DFF1FF" stroke-width="4" stroke-linecap="round"/>
    <circle cx="139" cy="87" r="25" fill="url(#petBallGradient)"/>
    <path d="M121 75c10 9 19 19 33 26M146 63c-2 12-5 23-16 42M117 92c13-2 24-5 43-5" stroke="#FFF0D5" stroke-width="4" stroke-linecap="round" opacity=".9"/>
    <circle cx="164" cy="56" r="8" fill="#F5A0A7"/>
    <circle cx="151" cy="48" r="8" fill="#F5A0A7"/><circle cx="177" cy="48" r="8" fill="#F5A0A7"/>
    <circle cx="155" cy="64" r="8" fill="#F5A0A7"/><circle cx="173" cy="64" r="8" fill="#F5A0A7"/>
    <path d="M156 55c0-9 16-9 16 0 0 8-8 13-8 13s-8-5-8-13Z" fill="#D86174"/>
  </g>
</svg>
