<svg xmlns="http://www.w3.org/2000/svg" viewBox="0 0 200 150" fill="none">
  <defs>
    <linearGradient id="stationeryNotebookGradient" x1="42" y1="57" x2="102" y2="121" gradientUnits="userSpaceOnUse"><stop stop-color="#B4D7FA"/><stop offset="1" stop-color="#5D8FC8"/></linearGradient>
    <linearGradient id="stationeryPouchGradient" x1="124" y1="88" x2="167" y2="122" gradientUnits="userSpaceOnUse"><stop stop-color="#FFD5AD"/><stop offset="1" stop-color="#DD8B70"/></linearGradient>
    <filter id="stationerySoftShadow" x="20" y="27" width="160" height="113" filterUnits="userSpaceOnUse"><feDropShadow dx="0" dy="8" stdDeviation="6" flood-color="#325170" flood-opacity=".18"/></filter>
  </defs>
  <g filter="url(#stationerySoftShadow)">
    <ellipse cx="101" cy="126" rx="69" ry="8" fill="#D7DEE7" opacity=".74"/>
    <rect x="45" y="54" width="56" height="68" rx="8" fill="url(#stationeryNotebookGradient)"/>
    <path d="M57 55v66" stroke="#E9F6FF" stroke-width="5" stroke-linecap="round"/>
    <path d="M66 73h24m-24 11h24m-24 11h17" stroke="#E8F4FD" stroke-width="3" stroke-linecap="round" opacity=".9"/>
    <path d="m112 45 10 5-34 71-10-5 34-71Z" fill="#F2C666"/>
    <path d="m112 45 10 5 4-8-10-5-4 8Z" fill="#5E7B90"/>
    <path d="m78 116 10 5-13 8 3-13Z" fill="#E9DFD0"/>
    <path d="M126 89h34c6 0 11 5 11 11v17h-56v-17c0-6 5-11 11-11Z" fill="url(#stationeryPouchGradient)"/>
    <path d="M120 91c4-10 42-10 46 0" stroke="#A86658" stroke-width="5" stroke-linecap="round"/>
    <path d="M123 101h40" stroke="#FFF0E3" stroke-width="3" stroke-linecap="round"/>
    <circle cx="143" cy="108" r="3" fill="#F7D6B4"/>
  </g>
</svg>
