<svg width="30" height="20" viewBox="0 0 30 20" fill="none" xmlns="http://www.w3.org/2000/svg">
<path d="M30 0H0V20H30V0Z" fill="#F0F0F0"/>
<path d="M30 2.49976H0V4.99951H30V2.49976Z" fill="#D80027"/>
<path d="M30 7.49991H0V9.99967H30V7.49991Z" fill="#D80027"/>
<path d="M30 12.4994H0V14.9992H30V12.4994Z" fill="#D80027"/>
<path d="M30 17.4996H0V19.9993H30V17.4996Z" fill="#D80027"/>
<path d="M15 0H0V10.7692H15V0Z" fill="#0052B4"/>
<path d="M8.25623 7.8572C6.89053 7.8572 5.78346 6.75008 5.78346 5.38445C5.78346 4.01882 6.89059 2.9117 8.25623 2.9117C8.68203 2.9117 9.08264 3.0194 9.4325 3.20889C8.88377 2.67229 8.1333 2.34106 7.30514 2.34106C5.62432 2.34106 4.26172 3.70365 4.26172 5.38445C4.26172 7.06525 5.62437 8.42783 7.30514 8.42783C8.13324 8.42783 8.88377 8.09661 9.4325 7.56001C9.0827 7.7495 8.68203 7.8572 8.25623 7.8572Z" fill="#FFDA44"/>
<path d="M8.95381 3.64529L9.39285 4.56333L10.3843 4.33423L9.94029 5.24981L10.7376 5.88214L9.74488 6.10591L9.7477 7.1235L8.95381 6.48683L8.15992 7.1235L8.16268 6.10591L7.16992 5.88214L7.96727 5.24981L7.52318 4.33423L8.51471 4.56333L8.95381 3.64529Z" fill="#FFDA44"/>
</svg>
