<svg width="30" height="20" viewBox="0 0 30 20" fill="none" xmlns="http://www.w3.org/2000/svg">
<rect width="30" height="20" fill="#F5F5F5"/>
<rect width="1876" height="988" transform="translate(-1562 -744)" fill="white"/>
<path d="M30 0H0V20H30V0Z" fill="#F0F0F0"/>
<path d="M30 0H0V10H30V0Z" fill="#D80027"/>
<path d="M4.89219 4.99984C4.89219 3.54288 5.91617 2.32574 7.28352 2.02708C7.07334 1.98114 6.85531 1.9563 6.63137 1.9563C4.95043 1.9563 3.58789 3.31887 3.58789 4.99978C3.58789 6.6807 4.95049 8.04332 6.63137 8.04332C6.85531 8.04332 7.07334 8.01842 7.28352 7.97254C5.91617 7.674 4.89219 6.45686 4.89219 4.99984Z" fill="#F0F0F0"/>
<path d="M8.80498 2.17371L9.02084 2.838H9.71934L9.1542 3.24857L9.37006 3.91286L8.80498 3.50235L8.23984 3.91286L8.45576 3.24857L7.89062 2.838H8.58912L8.80498 2.17371Z" fill="#F0F0F0"/>
<path d="M7.10967 3.47815L7.32547 4.14244H8.02396L7.45883 4.55302L7.67469 5.21731L7.10967 4.80679L6.54453 5.21731L6.76045 4.55302L6.19531 4.14244H6.89381L7.10967 3.47815Z" fill="#F0F0F0"/>
<path d="M10.4983 3.47815L10.7141 4.14244H11.4126L10.8475 4.55302L11.0634 5.21731L10.4983 4.80679L9.9332 5.21731L10.1491 4.55302L9.58398 4.14244H10.2825L10.4983 3.47815Z" fill="#F0F0F0"/>
<path d="M9.84588 5.43469L10.0617 6.09898H10.7602L10.1952 6.50956L10.411 7.17385L9.84588 6.76333L9.28086 7.17385L9.49672 6.50956L8.93164 6.09898H9.63008L9.84588 5.43469Z" fill="#F0F0F0"/>
<path d="M7.76195 5.43469L7.97775 6.09898H8.67625L8.11117 6.50956L8.32703 7.17385L7.76195 6.76333L7.19687 7.17385L7.41273 6.50956L6.84766 6.09898H7.54609L7.76195 5.43469Z" fill="#F0F0F0"/>
</svg>
